<svg xmlns="http://www.w3.org/2000/svg" viewBox="0 0 240 240">
  <!-- Gear shape - dark navy -->
  <path fill="#1a1a2e" d="M120.0,20.0L129.3,2.4L135.4,3.0L140.8,22.2L145.9,23.4L159.4,8.8L165.2,11.0L165.4,30.9L170.0,33.4L186.8,22.8L191.8,26.4L186.9,45.7L190.7,49.3L209.7,43.4L213.6,48.2L203.9,65.5L206.6,70.0L226.5,69.2L229.0,74.8L215.1,89.1L216.6,94.1L236.0,98.5L237.0,104.6L219.9,114.8L220.0,120.0L237.6,129.3L237.0,135.4L217.8,140.8L216.6,145.9L231.2,159.4L229.0,165.2L209.1,165.4L206.6,170.0L217.2,186.8L213.6,191.8L194.3,186.9L190.7,190.7L196.6,209.7L191.8,213.6L174.5,203.9L170.0,206.6L170.8,226.5L165.2,229.0L150.9,215.1L145.9,216.6L141.5,236.0L135.4,237.0L125.2,219.9L120.0,220.0L110.7,237.6L104.6,237.0L99.2,217.8L94.1,216.6L80.6,231.2L74.8,229.0L74.6,209.1L70.0,206.6L53.2,217.2L48.2,213.6L53.1,194.3L49.3,190.7L30.3,196.6L26.4,191.8L36.1,174.5L33.4,170.0L13.5,170.8L11.0,165.2L24.9,150.9L23.4,145.9L4.0,141.5L3.0,135.4L20.1,125.2L20.0,120.0L2.4,110.7L3.0,104.6L22.2,99.2L23.4,94.1L8.8,80.6L11.0,74.8L30.9,74.6L33.4,70.0L22.8,53.2L26.4,48.2L45.7,53.1L49.3,49.3L43.4,30.3L48.2,26.4L65.5,36.1L70.0,33.4L69.2,13.5L74.8,11.0L89.1,24.9L94.1,23.4L98.5,4.0L104.6,3.0L114.8,20.1Z"/>

  <!-- Inner circle - brand blue -->
  <circle cx="120" cy="120" r="88" fill="#0055A4"/>

  <!-- Sunburst rays - alternating darker blue wedges -->
  <g>
    <clipPath id="circle-clip"><circle cx="120" cy="120" r="88"/></clipPath>
    <g clip-path="url(#circle-clip)">
      <polygon fill="#004080" points="120,120 120.0,35.0 128.3,35.4"/>
      <polygon fill="#004080" points="120,120 136.6,36.6 144.7,38.7"/>
      <polygon fill="#004080" points="120,120 152.5,41.5 160.1,45.0"/>
      <polygon fill="#004080" points="120,120 167.2,49.3 173.9,54.3"/>
      <polygon fill="#004080" points="120,120 180.1,59.9 185.7,66.1"/>
      <polygon fill="#004080" points="120,120 190.7,72.8 195.0,79.9"/>
      <polygon fill="#004080" points="120,120 198.5,87.5 201.3,95.3"/>
      <polygon fill="#004080" points="120,120 203.4,103.4 204.6,111.7"/>
      <polygon fill="#004080" points="120,120 205.0,120.0 204.6,128.3"/>
      <polygon fill="#004080" points="120,120 203.4,136.6 201.3,144.7"/>
      <polygon fill="#004080" points="120,120 198.5,152.5 195.0,160.1"/>
      <polygon fill="#004080" points="120,120 190.7,167.2 185.7,173.9"/>
      <polygon fill="#004080" points="120,120 180.1,180.1 173.9,185.7"/>
      <polygon fill="#004080" points="120,120 167.2,190.7 160.1,195.0"/>
      <polygon fill="#004080" points="120,120 152.5,198.5 144.7,201.3"/>
      <polygon fill="#004080" points="120,120 136.6,203.4 128.3,204.6"/>
      <polygon fill="#004080" points="120,120 120.0,205.0 111.7,204.6"/>
      <polygon fill="#004080" points="120,120 103.4,203.4 95.3,201.3"/>
      <polygon fill="#004080" points="120,120 87.5,198.5 79.9,195.0"/>
      <polygon fill="#004080" points="120,120 72.8,190.7 66.1,185.7"/>
      <polygon fill="#004080" points="120,120 59.9,180.1 54.3,173.9"/>
      <polygon fill="#004080" points="120,120 49.3,167.2 45.0,160.1"/>
      <polygon fill="#004080" points="120,120 41.5,152.5 38.7,144.7"/>
      <polygon fill="#004080" points="120,120 36.6,136.6 35.4,128.3"/>
      <polygon fill="#004080" points="120,120 35.0,120.0 35.4,111.7"/>
      <polygon fill="#004080" points="120,120 36.6,103.4 38.7,95.3"/>
      <polygon fill="#004080" points="120,120 41.5,87.5 45.0,79.9"/>
      <polygon fill="#004080" points="120,120 49.3,72.8 54.3,66.1"/>
      <polygon fill="#004080" points="120,120 59.9,59.9 66.1,54.3"/>
      <polygon fill="#004080" points="120,120 72.8,49.3 79.9,45.0"/>
      <polygon fill="#004080" points="120,120 87.5,41.5 95.3,38.7"/>
      <polygon fill="#004080" points="120,120 103.4,36.6 111.7,35.4"/>
    </g>
  </g>

  <!-- Lightning bolt - brand orange -->
  <path fill="#FF6B00" d="M138,38 L94,125 L117,125 L102,202 L166,110 L139,110 Z" stroke="#1a1a2e" stroke-width="3" stroke-linejoin="round"/>

  <!-- Text banner background -->
  <rect x="42" y="172" width="156" height="28" rx="4" fill="#1a1a2e" opacity="0.75"/>

  <!-- POPELEC text -->
  <text x="120" y="193" text-anchor="middle" font-family="Arial Black, Impact, sans-serif" font-weight="900" font-size="24" fill="#FF6B00" letter-spacing="4">POPELEC</text>
</svg>
